#!OML:ASF F:\VICON\USERDATA\INSTALL\rory3\rory3.ASF
:FULLY-SPECIFIED
:DEGREES
1851
root 0.00399013 16.9688 -0.0769384 -1.40875 6.92877 -1.06639
lowerback 2.70622 0.0571998 -1.279
upperback 3.5208 0.0465219 1.30901
thorax 2.09484 -0.0223892 2.06077
lowerneck -1.6885 -11.3439 -19.484
upperneck -8.28503 -14.4195 27.4759
head 1.68974 -7.26812 11.2582
rclavicle 1.15544e-014 1.43125e-014
rhumerus 71.9806 8.12123 -81.9686
rradius 96.9698
rwrist -8.16842
rhand -39.0581 6.32453
rfingers 7.12502
rthumb -12.0597 -23.308
lclavicle 1.15544e-014 1.43125e-014
lhumerus 72.5904 -11.69 79.1712
lradius 93.7247
lwrist 35.25
lhand -34.3981 30.9431
lfingers 7.12502
lthumb -7.56385 60.7879
rfemur -4.59969 0.259743 21.1185
rtibia 28.541
rfoot -21.0373 -13.5181
rtoes -19.9666
lfemur -9.25002 -10.8001 -16.9451
ltibia 32.6927
lfoot -20.3814 0.752423
ltoes -14.8712
1852
root 0.0119182 16.9841 -0.0440444 -1.4082 6.87413 -1.19215
lowerback 2.18941 0.0661551 -1.10118
upperback 3.28165 0.0642919 1.27405
thorax 2.13692 -0.00777489 1.92486
lowerneck -1.41034 -11.3464 -19.381
upperneck -8.18657 -14.4826 27.3556
head 1.66144 -7.31426 11.205
rclavicle -4.98204e-015 7.35503e-015
rhumerus 71.9475 7.5673 -82.2862
rradius 96.3884
rwrist -8.77378
rhand -38.9527 6.30372
rfingers 7.12502
rthumb -11.9581 -23.3347
lclavicle -4.98204e-015 7.35503e-015
lhumerus 72.414 -11.3223 79.235
lradius 93.1747
lwrist 35.6191
lhand -34.7112 31.1139
lfingers 7.12502
lthumb -7.86601 60.9476
rfemur -4.11036 0.57047 21.2936
rtibia 27.8307
rfoot -20.8169 -13.6956
rtoes -19.8081
lfemur -8.87484 -11.0694 -16.8877
ltibia 32.2699
lfoot -20.3541 1.10723
ltoes -15.4042
1853
root 0.0201359 16.9979 -0.012681 -1.5033 6.86482 -1.35711
lowerback 1.7559 0.00700807 -0.955063
upperback 3.20876 -0.0127582 1.32335
thorax 2.30813 -0.044598 1.89383
lowerneck -1.71427 -11.4268 -19.4311
upperneck -8.00449 -14.58 27.3323
head 1.78844 -7.33444 11.1665
rclavicle 5.06901e-015 1.19271e-015
rhumerus 72.178 7.1203 -82.5109
rradius 95.82
rwrist -9.41832
rhand -38.921 6.37447
rfingers 7.12502
rthumb -11.9275 -23.2657
lclavicle 5.06901e-015 1.19271e-015
lhumerus 72.4856 -10.71 79.2204
lradius 92.7016
lwrist 35.8765
lhand -34.9647 31.7884
lfingers 7.12502
lthumb -8.11069 61.6128
rfemur -3.53664 0.807783 21.5024
rtibia 27.1526
rfoot -20.6678 -13.8166
rtoes -19.2998
lfemur -8.41407 -11.3414 -16.8062
ltibia 31.8556
lfoot -20.2799 1.34978
ltoes -15.2365
1854
root 0.0284214 17.0078 0.0157319 -1.59223 6.85556 -1.43737
lowerback 1.4145 -0.0977615 -0.998954
upperback 3.05339 -0.152631 1.42262
thorax 2.34604 -0.116242 2.0196
lowerneck -1.76742 -11.4316 -19.6617
upperneck -7.79799 -14.6159 27.3664
head 1.88531 -7.33786 11.2042
rclavicle 6.68413e-015 1.15295e-014
rhumerus 72.1337 6.76147 -82.5501
rradius 95.3311
rwrist -9.91092
rhand -38.9811 6.23216
rfingers 7.12502
rthumb -11.9854 -23.4047
lclavicle 6.68413e-015 1.15295e-014
lhumerus 72.417 -9.9481 79.2416
lradius 92.1775
lwrist 36.193
lhand -35.2816 32.6921
lfingers 7.12502
lthumb -8.41656 62.5044
rfemur -3.00017 1.0509 21.623
rtibia 26.5212
rfoot -20.4661 -14.0196
rtoes -19.3799
lfemur -7.94262 -11.585 -16.8113
ltibia 31.3979
lfoot -20.2058 1.50602
ltoes -14.5928
1855
root 0.0364236 17.0183 0.0476893 -1.63794 6.77315 -1.26835
lowerback 1.07924 -0.097508 -1.2413
upperback 2.77511 -0.148073 1.36552
thorax 2.24829 -0.115897 2.09632
lowerneck -1.4511 -11.3783 -19.5533
upperneck -7.63096 -14.617 27.1758
head 1.84614 -7.35317 11.1357
rclavicle 7.50412e-015 1.19271e-015
rhumerus 71.812 6.17707 -82.6909
rradius 94.7796
rwrist -10.2993
rhand -39.0315 5.99444
rfingers 7.12502
rthumb -12.034 -23.6396
lclavicle 7.50412e-015 1.19271e-015
lhumerus 72.1719 -9.47512 79.3373
lradius 91.5886
lwrist 36.6481
lhand -35.7101 33.2849
lfingers 7.12502
lthumb -8.83002 63.0802
rfemur -2.47437 1.34529 21.4663
rtibia 25.9045
rfoot -20.2172 -14.1944
rtoes -19.3668
lfemur -7.4576 -11.7796 -17.1064
ltibia 30.9401
lfoot -20.1386 1.87136
ltoes -14.9425
1856
root 0.0448032 17.031 0.0799371 -1.67342 6.71454 -1.00462
lowerback 0.70017 -0.0937431 -1.50858
upperback 2.61953 -0.136851 1.28431
thorax 2.30145 -0.11437 2.16255
lowerneck -1.50166 -11.3767 -19.5341
upperneck -7.43308 -14.638 27.0284
head 1.89602 -7.3517 11.07
rclavicle -4.99446e-015 -7.95139e-016
rhumerus 71.8416 5.73857 -83.1624
rradius 94.0232
rwrist -10.3793
rhand -38.9537 5.83786
rfingers 7.12502
rthumb -11.959 -23.8005
lclavicle -4.99446e-015 -7.95139e-016
lhumerus 72.1565 -8.9998 79.5488
lradius 90.9228
lwrist 36.9694
lhand -36.0346 33.489
lfingers 7.12502
lthumb -9.1432 63.2708
rfemur -1.96888 1.55361 21.1814
rtibia 25.3361
rfoot -20.1087 -14.2431
rtoes -19.006
lfemur -6.96626 -12.0564 -17.5275
ltibia 30.4932
lfoot -20.143 2.2667
ltoes -15.0442
1857
root 0.0495877 17.0422 0.107338 -1.71787 6.68389 -1.16689
lowerback 0.352885 -0.126476 -1.40895
upperback 2.52067 -0.17965 1.36684
thorax 2.39695 -0.134831 2.19038
lowerneck -1.82986 -11.4571 -19.6133
upperneck -7.11115 -14.7519 26.918
head 2.06208 -7.37349 10.9994
rclavicle -6.8208e-015 1.39149e-015
rhumerus 72.0178 5.38312 -83.6858
rradius 93.3522
rwrist -10.4694
rhand -38.7718 5.62882
rfingers 7.12502
rthumb -11.7836 -24.0197
lclavicle -6.8208e-015 1.39149e-015
lhumerus 72.2487 -8.45932 79.7931
lradius 90.2364
lwrist 37.1231
lhand -36.1455 33.5538
lfingers 7.12502
lthumb -9.25024 63.3309
rfemur -1.53845 1.86253 21.4141
rtibia 24.7728
rfoot -19.9397 -14.4666
rtoes -19.0174
lfemur -6.59005 -12.2967 -17.4214
ltibia 30.078
lfoot -20.087 2.49174
ltoes -15.1007
1858
root 0.0547765 17.0501 0.13352 -1.73203 6.66198 -1.30223
lowerback 0.148625 -0.102799 -1.1984
upperback 2.0599 -0.146154 1.30572
thorax 2.03478 -0.106375 2.00903
lowerneck -1.06818 -11.3965 -19.6496
upperneck -6.95971 -14.8167 26.8927
head 1.98705 -7.45056 11.0341
rclavicle 2.22328e-014 -1.19271e-015
rhumerus 71.4404 4.69752 -84.1258
rradius 92.854
rwrist -10.6147
rhand -38.7215 5.35632
rfingers 7.12502
rthumb -11.7351 -24.295
lclavicle 2.22328e-014 -1.19271e-015
lhumerus 71.7574 -8.2246 80.013
lradius 89.5178
lwrist 37.4067
lhand -36.3231 33.5123
lfingers 7.12502
lthumb -9.42154 63.2818
rfemur -1.10536 2.12 21.6098
rtibia 24.1876
rfoot -19.6016 -14.6122
rtoes -18.8814
lfemur -6.28895 -12.4435 -17.3191
ltibia 29.7167
lfoot -20.075 2.78545
ltoes -15.8521
1859
root 0.0608181 17.0582 0.161893 -1.79504 6.64755 -1.3785
lowerback -0.059533 -0.0985245 -1.05144
upperback 1.59555 -0.137509 1.20733
thorax 1.67342 -0.0926266 1.82496
lowerneck -0.229937 -11.2749 -19.563
upperneck -6.77418 -14.8104 26.7944
head 1.87287 -7.49787 11.0385
rclavicle -2.61526e-015 2.5842e-015
rhumerus 70.8098 4.02393 -84.5089
rradius 92.3104
rwrist -10.7448
rhand -38.7051 4.95771
rfingers 7.12502
rthumb -11.7193 -24.6945
lclavicle -2.61526e-015 2.5842e-015
lhumerus 71.255 -7.91487 80.1375
lradius 88.7888
lwrist 37.7985
lhand -36.5305 33.7179
lfingers 7.12502
lthumb -9.62166 63.4782
rfemur -0.588728 2.34466 21.7265
rtibia 23.5939
rfoot -19.2693 -14.693
rtoes -18.7003
lfemur -5.93038 -12.5583 -17.3111
ltibia 29.3987
lfoot -20.0648 3.05359
ltoes -16.5503
1860
root 0.0647823 17.0674 0.18819 -1.8286 6.6428 -1.42113
lowerback -0.35499 -0.175561 -1.08057
upperback 1.41826 -0.238149 1.2346
thorax 1.66168 -0.142294 1.86714
lowerneck -0.416613 -11.305 -19.6828
upperneck -6.194 -14.9237 26.7168
head 2.09284 -7.52373 10.9905
rclavicle -5.2445e-015 2.08724e-015
rhumerus 70.8139 3.60932 -84.7571
rradius 91.6026
rwrist -10.9333
rhand -38.9028 4.71771
rfingers 7.12502
rthumb -11.9099 -24.9235
lclavicle -5.2445e-015 2.08724e-015
lhumerus 71.2172 -7.25656 80.3182
lradius 87.9704
lwrist 38.1486
lhand -36.5657 33.436
lfingers 7.12502
lthumb -9.65559 63.1947
rfemur -0.198809 2.57026 21.8236
rtibia 23.0739
rfoot -19.0864 -14.945
rtoes -18.9664
lfemur -5.5978 -12.694 -17.3189
ltibia 29.0524
lfoot -19.9772 3.01023
ltoes -15.8069
1861
root 0.0720327 17.0791 0.215685 -1.89424 6.62324 -1.46051
lowerback -0.71134 -0.18145 -1.02691
upperback 1.29041 -0.244442 1.23559
thorax 1.7306 -0.144426 1.83707
lowerneck -0.574407 -11.4205 -19.7797
upperneck -5.51848 -15.1752 26.5647
head 2.35685 -7.61713 10.8934
rclavicle -2.95615e-015 -5.46658e-015
rhumerus 70.8136 3.04726 -84.9696
rradius 90.869
rwrist -10.9626
rhand -39.0553 4.60949
rfingers 7.12502
rthumb -12.0569 -25.0232
lclavicle -2.95615e-015 -5.46658e-015
lhumerus 71.2359 -6.79383 80.5432
lradius 87.1653
lwrist 38.4937
lhand -36.6639 33.2822
lfingers 7.12502
lthumb -9.7504 63.0364
rfemur 0.215967 2.77965 21.9028
rtibia 22.5426
rfoot -18.9073 -15.1738
rtoes -19.3224
lfemur -5.22553 -12.8166 -17.3538
ltibia 28.7287
lfoot -19.9193 3.10366
ltoes -15.5851
1862
root 0.0789145 17.0892 0.239967 -1.96617 6.63873 -1.41793
lowerback -0.985949 -0.00812878 -0.90074
upperback 0.64225 -0.00837654 1.01144
thorax 1.21049 -0.015984 1.54076
lowerneck 1.50266 -11.2188 -19.8167
upperneck -5.67234 -15.2066 26.6268
head 1.96954 -7.77406 11.0638
rclavicle -3.16735e-015 -1.09332e-014
rhumerus 69.7485 1.95837 -85.2942
rradius 90.0836
rwrist -10.9165
rhand -39.1454 4.42026
rfingers 7.12502
rthumb -12.1439 -25.2073
lclavicle -3.16735e-015 -1.09332e-014
lhumerus 70.3529 -7.10867 80.8172
lradius 86.4431
lwrist 38.8517
lhand -36.6966 33.7366
lfingers 7.12502
lthumb -9.78197 63.4894
rfemur 0.655449 2.90034 21.8797
rtibia 22.0086
rfoot -18.7227 -15.2676
rtoes -19.5017
lfemur -4.85975 -12.9331 -17.4739
ltibia 28.4196
lfoot -19.9082 3.25709
ltoes -15.7807
1863
root 0.0824754 17.0912 0.258823 -2.05758 6.6915 -1.57874
lowerback -1.21174 0.0696902 -0.668209
upperback 0.240232 0.0950109 0.930825
thorax 0.922343 0.0414445 1.32946
lowerneck 2.59927 -11.143 -19.7828
upperneck -5.78844 -15.257 26.6201
head 1.75428 -7.87347 11.1307
rclavicle 6.11588e-015 8.45456e-015
rhumerus 69.2526 1.13599 -85.5405
rradius 89.3373
rwrist -10.9655
rhand -39.2549 4.17914
rfingers 7.12502
rthumb -12.2495 -25.4421
lclavicle 6.11588e-015 8.45456e-015
lhumerus 69.9473 -7.06635 80.9592
lradius 85.6831
lwrist 39.3349
lhand -36.9702 34.3071
lfingers 7.12502
lthumb -10.0459 64.0473
rfemur 1.13959 3.07611 22.1183
rtibia 21.4629
rfoot -18.5479 -15.4853
rtoes -19.4621
lfemur -4.55749 -13.0554 -17.341
ltibia 28.1326
lfoot -19.8837 3.33288
ltoes -15.9908
1864
root 0.0861308 17.093 0.280193 -2.15761 6.66261 -1.56735
lowerback -1.46023 0.0904377 -0.645231
upperback 0.0846181 0.124262 0.849875
thorax 0.901712 0.0572022 1.23453
lowerneck 2.87184 -11.1633 -19.6484
upperneck -5.78088 -15.3235 26.5452
head 1.70504 -7.9239 11.0931
rclavicle 1.60192e-015 -2.21148e-015
rhumerus 69.2149 0.51443 -85.8058
rradius 88.5768
rwrist -11.0685
rhand -39.4736 4.01665
rfingers 7.12502
rthumb -12.4603 -25.5919
lclavicle 1.60192e-015 -2.21148e-015
lhumerus 69.9404 -6.64604 80.8423
lradius 84.7948
lwrist 39.9703
lhand -37.3034 34.3628
lfingers 7.12502
lthumb -10.3674 64.0872
rfemur 1.66386 3.32212 22.1628
rtibia 20.9068
rfoot -18.3542 -15.6929
rtoes -19.185
lfemur -4.19537 -13.194 -17.4243
ltibia 27.877
lfoot -19.8952 3.27479
ltoes -14.947
1865
root 0.0906655 17.097 0.304831 -2.32929 6.6145 -1.62604
lowerback -1.67688 0.0781208 -0.563788
upperback -0.0127457 0.107565 0.810301
thorax 0.924121 0.0496236 1.14825
lowerneck 2.96945 -11.1733 -19.6823
upperneck -5.66987 -15.3764 26.5791
head 1.73744 -7.9539 11.1082
rclavicle 4.50372e-016 -1.67476e-014
rhumerus 69.2373 -0.0159418 -86.1144
rradius 87.8218
rwrist -11.1851
rhand -39.6091 4.10158
rfingers 7.12502
rthumb -12.5909 -25.499
lclavicle 4.50372e-016 -1.67476e-014
lhumerus 69.9749 -6.10952 80.7605
lradius 83.9122
lwrist 40.5718
lhand -37.4095 34.2742
lfingers 7.12502
lthumb -10.4697 63.9934
rfemur 2.25915 3.5305 22.2784
rtibia 20.3244
rfoot -18.166 -15.851
rtoes -19.2658
lfemur -3.758 -13.2963 -17.4635
ltibia 27.6624
lfoot -19.9523 3.40957
ltoes -14.8965
